<svg xmlns="http://www.w3.org/2000/svg" width="1024" height="1024"><path d="M509.887 43.643c-25.535-.49-45.385 8.993-66.616 22.314-5.873 3.668-11.79 7.26-17.709 10.856l-1.832 1.115c-7.102 4.32-14.233 8.551-21.52 12.554-6.643 3.687-13.103 7.68-19.585 11.643a1278 1278 0 0 1-30.76 18.207 2683 2683 0 0 0-24.49 14.23q-3.675 2.16-7.352 4.317l-1.806 1.06A6121 6121 0 0 1 301 150a13051 13051 0 0 0-26.625 15.563l-1.871 1.095a5559 5559 0 0 0-23.692 13.967c-7.734 4.585-15.514 9.087-23.312 13.563-12.782 7.344-25.422 14.913-38.043 22.53a1529 1529 0 0 1-12.07 7.196c-35.746 21.143-69.305 42.566-80.637 85.024-1.596 6.222-2.874 11.864-2.88 18.304l-.013 3.834.002 4.205q-.004 2.237-.01 4.473-.009 6.147-.01 12.295-.003 6.63-.015 13.262-.018 14.5-.025 29.002-.004 9.06-.01 18.119c-.012 16.73-.024 33.46-.027 50.19v6.497l-.002 6.524v3.27c-.004 17.464-.022 34.93-.045 52.396q-.036 26.911-.037 53.824c-.001 10.07-.007 20.138-.026 30.207q-.023 12.867-.011 25.734.007 6.56-.012 13.117-.019 6.019 0 12.038.003 2.162-.01 4.326c-.18 31.474 12.533 57.156 34.315 79.422C141.12 764.364 161.123 774.308 179 785l2.986 1.787c11.88 7.089 23.852 14.016 35.842 20.914 6.68 3.847 13.311 7.754 19.906 11.744 6.077 3.658 12.208 7.223 18.328 10.805a6388 6388 0 0 1 28.563 16.805 2851 2851 0 0 0 15.195 8.93c12.708 7.417 25.36 14.907 37.918 22.576 8.865 5.41 17.79 10.709 26.762 15.939a1700 1700 0 0 1 28.938 17.25c9.81 5.981 19.66 11.888 29.562 17.715 6.88 4.049 13.745 8.125 20.61 12.201l6.251 3.713 1.99 1.182 3.854 2.287c3.638 2.16 7.257 4.347 10.87 6.55 21.18 12.7 48.121 13.233 71.679 7.86 15.893-4.407 29.845-13.558 43.865-21.96 7.475-4.478 15.006-8.844 22.568-13.173 7.48-4.29 14.877-8.66 22.147-13.295 6.033-3.815 12.22-7.348 18.416-10.893a1111 1111 0 0 0 27.563-16.312A1679 1679 0 0 1 702 870.188c8.027-4.686 16.042-9.386 24-14.188 12.341-7.442 24.79-14.7 37.234-21.969l5.102-2.98a8010 8010 0 0 1 32.947-19.156c5.67-3.28 11.32-6.593 16.961-9.92 5.15-3.036 10.313-6.048 15.48-9.053 61.6-34.472 61.598-34.472 95.55-93.836 1.236-5.254 1.853-10.195 1.859-15.596l.01-3.935-.002-4.305.01-4.588q.009-6.302.01-12.603.003-6.798.015-13.596.02-14.865.025-29.729.004-9.285.01-18.57c.012-17.147.024-34.293.027-51.44v-6.658l.002-6.685v-3.35c.004-17.902.022-35.804.045-53.707q.036-27.585.037-55.17c.001-10.321.007-20.643.026-30.965q.024-13.186.011-26.373c-.003-4.481-.002-8.963.012-13.445q.019-6.165 0-12.332-.004-2.22.01-4.437c.159-28.601-12.282-52.607-32.068-72.727-6.934-6.868-14.128-12.596-22.313-17.875l-2.396-1.568c-18.773-12.255-38.142-23.464-57.573-34.631-7.946-4.575-15.84-9.234-23.718-13.926-9.211-5.483-18.481-10.84-27.829-16.086-7.813-4.39-15.558-8.89-23.293-13.418-7.38-4.32-14.78-8.604-22.191-12.871-17.67-10.185-35.292-20.436-52.768-30.953C656.857 111.304 646.434 105.144 636 99l-4.305-2.54a5480 5480 0 0 0-26.97-15.782 2514 2514 0 0 1-17.147-10.073c-31.01-19.337-31.01-19.337-66.16-26.843l-2.217-.026q-2.325-.02-4.652-.03a393 393 0 0 1-4.662-.063z" style="fill:#874fbc;fill-opacity:1;stroke:#5d3b86;stroke-opacity:.43765905"/><path fill="#5A358E" d="m548 49 2.092.829c10.373 4.232 19.864 9.983 29.392 15.823 6.17 3.772 12.433 7.374 18.703 10.973a2569 2569 0 0 1 27.645 16.094q3.551 2.097 7.11 4.183a2053 2053 0 0 1 29.03 17.388c12.854 7.844 25.838 15.43 38.905 22.915 5.056 2.906 10.09 5.85 15.123 8.795 12.637 7.385 25.317 14.695 38 22a8600 8600 0 0 1 47.054 27.28q5.841 3.41 11.687 6.814 2.958 1.726 5.915 3.454c4.843 2.832 9.691 5.655 14.557 8.448 13.064 7.505 25.934 15.211 38.475 23.566l3.307 2.199C900.174 256.738 923.573 280.085 930 311c.74 4.585 1.127 8.981 1.134 13.624l.014 3.937v4.289q.004 2.293.01 4.585.014 6.289.017 12.578.007 6.787.022 13.576c.02 10.925.03 21.85.039 32.775l.015 15.45a90157 90157 0 0 1 .044 64.716l.002 3.346c.008 17.874.033 35.748.066 53.623q.049 27.553.054 55.106c.002 10.306.01 20.612.036 30.919q.034 13.17.02 26.338c-.004 4.474-.002 8.948.017 13.422q.026 6.162.001 12.322-.003 2.213.014 4.424c.216 28.333-10.994 51.961-30.505 71.97l-1.914 2.137c-17.072 18.538-44.622 30.884-66.36 43.18a806 806 0 0 0-13.038 7.558 4377 4377 0 0 1-20.563 12.063l-3.116 1.817a5231 5231 0 0 1-18.634 10.808c-8.727 5.04-17.403 10.165-26.074 15.3-4.74 2.807-9.488 5.6-14.239 8.387a1621 1621 0 0 0-16.584 9.882c-5.455 3.278-10.95 6.487-16.447 9.696a2012 2012 0 0 0-34.962 20.863c-9.502 5.804-19.111 11.403-28.777 16.929a572 572 0 0 0-19.667 11.817c-8.74 5.49-17.656 10.638-26.636 15.72-7.332 4.15-14.592 8.381-21.739 12.843-26.301 16.298-53.028 22.446-83.734 17.242-11.95-2.907-22.514-8.647-32.829-15.18-2.45-1.525-4.907-3.041-7.363-4.558l-1.861-1.154c-6.075-3.756-12.258-7.314-18.463-10.85-10.26-5.867-20.383-11.935-30.469-18.094A1866 1866 0 0 0 373.5 900a2038 2038 0 0 1-25.627-15.37c-14.851-9.06-29.84-17.875-44.873-26.63l-12.437-7.25-2.97-1.73a3812 3812 0 0 1-21.954-12.916c-7.7-4.556-15.418-9.083-23.139-13.604a6553 6553 0 0 1-28.467-16.76c-5.63-3.33-11.276-6.63-16.933-9.914a1577 1577 0 0 1-35.391-21.158 1675 1675 0 0 0-5.332-3.27C129.197 754.783 107.379 735.9 96.75 705l-.747-2.156c-3.656-11.173-4.298-22.27-4.27-33.954l-.014-4.486c-.012-4.079-.012-8.158-.01-12.237 0-4.41-.01-8.822-.02-13.233q-.023-12.947-.023-25.893-.001-10.53-.012-21.06-.026-29.895-.025-59.791v-6.507c.001-17.406-.018-34.811-.046-52.216q-.043-26.85-.04-53.697c0-10.038-.005-20.075-.027-30.113q-.029-12.82-.009-25.641c.006-4.355.007-8.71-.01-13.064a1446 1446 0 0 1 .004-11.994q.005-2.151-.012-4.304C91.3 308.844 101.02 285.25 118 266l2.371-2.809c14.702-16.96 35.792-27.874 54.957-39.085 6.986-4.09 13.905-8.283 20.811-12.507 10.088-6.166 20.25-12.16 30.569-17.934C236.91 187.953 246.954 181.982 257 176q6.623-3.94 13.25-7.875l1.718-1.02c9.376-5.564 18.807-11.03 28.261-16.46 8.938-5.142 17.808-10.393 26.668-15.667 7.641-4.54 15.327-8.997 23.04-13.416 9.704-5.563 19.284-11.304 28.825-17.14 9.582-5.856 19.262-11.522 29.005-17.107 11.838-6.792 23.537-13.804 35.159-20.96l3.064-1.88a1390 1390 0 0 0 5.796-3.58c9.269-5.696 18.593-10.887 29.152-13.708l2.166-.615C502.77 41.06 528.922 41.278 548 49m-83 41-3.582 2.121q-3.48 2.079-6.941 4.184c-6.14 3.717-12.345 7.321-18.54 10.945l-7.632 4.469-1.894 1.109c-8.28 4.85-16.538 9.737-24.796 14.625q-3.954 2.34-7.912 4.676c-7.693 4.544-15.386 9.088-23.07 13.648a7648 7648 0 0 1-39.136 23.07 5135 5135 0 0 0-21.81 12.84c-10.531 6.234-21.1 12.402-31.677 18.56q-11.9 6.93-23.79 13.874-4.203 2.452-8.408 4.901c-14.002 8.16-27.93 16.43-41.764 24.873a1457 1457 0 0 1-21.61 12.917C146.785 277.47 146.785 277.47 126 312c-2.42 10.443-3.437 20.433-3.388 31.18q-.007 2.18-.016 4.363c-.014 3.946-.01 7.892-.003 11.839.005 4.275-.008 8.55-.018 12.826a9361 9361 0 0 0-.013 25.068 14762 14762 0 0 1-.005 23.327l-.004 5.914c-.014 18.45-.009 36.901.003 55.352.01 16.853-.003 33.705-.027 50.558q-.037 26.01-.027 52.019.007 14.58-.017 29.162a6389 6389 0 0 0 .002 24.82c.009 4.215.011 8.43-.004 12.644q-.02 5.803.01 11.606a612 612 0 0 1-.023 6.118c.17 21.548 7.795 40.207 22.655 55.766 11.03 10.654 24.16 18.187 37.305 25.919q3.703 2.192 7.382 4.421c11.6 7.019 23.32 13.815 35.07 20.575 12.773 7.349 25.418 14.9 38.045 22.497 8.262 4.962 16.565 9.85 24.885 14.713a2851 2851 0 0 1 36.013 21.416c10.297 6.223 20.676 12.305 31.06 18.385a4893 4893 0 0 1 68.942 41.123c8.22 4.996 16.446 9.983 24.706 14.914q6.972 4.167 13.9 8.405l3.365 2.046q3.232 1.965 6.453 3.95c6.065 3.679 12.022 6.797 18.749 9.074l1.98.675c5.905 1.74 11.845 1.62 17.957 1.575l3.131.023c21.354-.054 38.082-11.514 55.727-22.325 4.947-3.007 9.948-5.918 14.955-8.823l5.969-3.473 3.078-1.79c16.815-9.778 33.568-19.639 50.175-29.768a1679 1679 0 0 1 23.667-14.144c7.456-4.39 14.848-8.883 22.236-13.388 11.681-7.12 23.464-14.052 35.297-20.916 4.56-2.653 9.1-5.335 13.64-8.021l2.705-1.6q7.424-4.395 14.842-8.798l6.703-3.977 3.413-2.025a4533 4533 0 0 1 23.316-13.715c13.797-8.07 27.518-16.26 41.209-24.51l7.732-4.65q2.435-1.463 4.866-2.933a470 470 0 0 1 13.109-7.628c20.046-11.31 34.19-24.491 41.32-46.828 2.67-10.156 3.264-20.12 3.234-30.584l.011-4.328c.01-3.932.008-7.865.004-11.797-.002-4.254.007-8.508.014-12.761q.018-12.483.012-24.965-.002-10.153.005-20.305l.001-2.925.004-5.883q.014-27.557.003-55.114a34939 34939 0 0 1 .025-50.346q.03-25.887.024-51.774c-.002-9.679 0-19.357.014-29.036q.019-12.36.002-24.72c-.006-4.199-.008-8.397.005-12.596q.014-5.781-.007-11.562a808 808 0 0 1 .019-6.095c-.141-24.3-8.252-43.131-24.823-60.713-2.222-2.687-2.222-2.687-4.574-2.457v-2c-2.13-1.588-4.257-3.02-6.5-4.437l-2.21-1.415c-10.058-6.364-20.347-12.358-30.596-18.408-6.392-3.774-12.757-7.583-19.069-11.49-7.987-4.928-16.113-9.604-24.25-14.278a3163 3163 0 0 1-26.985-15.688 8286 8286 0 0 1-26.02-15.34 6453 6453 0 0 0-22.433-13.194l-3.704-2.172a8741 8741 0 0 0-16.728-9.784c-12.776-7.45-25.503-14.967-38.13-22.669-9.86-6.013-19.772-11.913-29.796-17.648-5.282-3.024-10.555-6.063-15.829-9.102l-3.414-1.967c-5.681-3.279-11.349-6.575-16.961-9.97-9.48-5.735-19.067-11.287-28.65-16.848a608 608 0 0 1-6.955-4.125c-7.013-4.19-13.845-7.39-21.77-9.465l-2.523-.68C505.407 70.914 485.438 77.705 465 90"/><path fill="#FEFEFE" d="m488.699 328.839 3.469-.03 3.734-.012 3.848-.017a3634 3634 0 0 1 8.057-.02c3.435-.006 6.869-.03 10.303-.058 3.285-.023 6.57-.025 9.855-.03l3.728-.038 3.479.01 3.052-.011c4.84.64 8.686 3.432 11.696 7.252 2.54 4.972 2.714 10.83 3.33 16.302l.484 3.83a440 440 0 0 1 2.011 19.61L556 378l.216 2.68c.554 2.529.554 2.529 3.01 3.46L562 385q2.706 1.344 5.379 2.75l3.04 1.594 3.143 1.656 6.192 3.25 2.76 1.453L585 397c.706.385 1.413.77 2.14 1.168 3.146 1.407 5.712.885 8.86-.168 3.496-1.775 6.819-3.802 10.152-5.864 3.569-2.194 7.18-4.317 10.785-6.449l2.188-1.31C629.988 377.93 629.988 377.93 637 379c7.097 4.122 11.36 11.44 15.764 18.127a778 778 0 0 0 6.736 9.998l1.402 2.057c3.458 5.016 7.184 9.685 11.086 14.365C681.381 435 681.381 435 681 443c-5.438 13.756-22.088 23.575-33.645 31.879-1.511 1.096-1.511 1.096-2.355 3.121-.132 1.81-.2 3.625-.24 5.44-.04 1.708-.04 1.708-.078 3.45q-.127 7.828-.197 15.657a548 548 0 0 1-.143 8.255c-.098 3.965-.13 7.93-.158 11.897l-.116 3.716c-.077 6.345-.077 6.345 2.647 11.867 2.013 1.781 4.032 3.258 6.285 4.718 1.16.914 2.315 1.836 3.457 2.773q1.676 1.305 3.355 2.602 1.818 1.42 3.633 2.844 2.605 2.04 5.214 4.074a693 693 0 0 1 4.528 3.582l2.606 2.055c2.355 2.209 3.794 4.171 5.207 7.07.22 12.779-10.788 24.974-17.64 35.089a1541 1541 0 0 0-4.975 7.417C643.894 632.053 643.894 632.053 638 635c-8.568 1.115-13.894-.854-20.938-5.563l-5.222-3.3L607 623a392 392 0 0 0-6.875-4.25l-2.617-1.64c-3.107-1.375-5.124-1.358-8.508-1.11-2.802 1.057-2.802 1.057-5.52 2.633-1.022.56-2.045 1.119-3.1 1.695l-3.193 1.797-3.158 1.727C563.162 628.955 563.162 628.955 555 637c-.26 2.672-.472 5.33-.648 8.008l-.36 4.93q-.278 3.88-.539 7.76c-.169 2.5-.353 4.999-.539 7.497l-.142 2.309c-.479 6.202-1.772 11.87-5.62 16.922-12.898 9.434-44.626 5.318-60.152 3.574-4.952-.907-7.978-1.899-11.438-5.625-3.039-6.565-3.734-13.386-4.421-20.516l-.222-2.226a657 657 0 0 1-.867-9.224c-.196-2.27-.426-4.534-.661-6.8l-.153-2.09c-.446-3.971-1.192-5.473-4.046-8.338-2.523-1.724-4.932-3.305-7.653-4.681l-2.43-1.25-2.484-1.25q-2.451-1.245-4.898-2.5c-1.191-.61-1.191-.61-2.406-1.23-2.912-1.593-5.624-3.422-8.323-5.352-2.84-1.305-4.9-1.232-7.998-.918-2.777 1.149-2.777 1.149-5.45 2.852l-3.071 1.832-3.167 1.941A2763 2763 0 0 1 405 630l-3.01 1.8-2.885 1.66-2.546 1.487c-3.062 1.26-5.275 1.342-8.559 1.053-8.578-4.38-14.041-13.187-19.195-21.031l-1.683-2.532c-1.755-2.642-3.5-5.29-5.247-7.937l-3.535-5.324c-6.304-9.505-6.304-9.505-9.34-14.176l-1.427-2.19-1.35-2.109-1.191-1.853c-2.06-3.689-3.105-6.686-2.032-10.848 6.636-9.62 16.356-16.695 25.547-23.707l1.803-1.378a498 498 0 0 1 3.5-2.642c3.042-2.222 3.042-2.222 5.15-5.273.075-2.887.091-5.75.062-8.637l-.011-2.641c-.016-3.728-.044-7.455-.072-11.183q-.025-4.087-.042-8.176l-.018-2.692c-.008-4.086.071-8.106.48-12.173l.203-2.074a233 233 0 0 1 .668-5.404c.002-3.244.002-3.244-2.64-5.827-3.177-2.653-3.177-2.653-6.443-5.193a824 824 0 0 1-13.375-10.5l-2.052-1.617c-12.148-9.772-12.148-9.772-13.198-16.82C342.935 429.83 356.23 416.455 363 407l3.59-5.047q1.703-2.384 3.41-4.766l1.56-2.187c9.879-13.694 9.879-13.694 15.44-16 5.252-.382 8.539.325 13.187 2.75l1.759.905c3.802 2.003 7.471 4.191 11.128 6.447l2.658 1.633q2.596 1.61 5.163 3.264c5.16 3.223 8.946 5.214 15.105 5.001 3.174-1.161 5.943-2.791 8.812-4.563l4.743-2.789 2.3-1.38c3.62-2.14 7.355-4.062 11.079-6.014 2.106-1.278 3.559-2.304 5.066-4.254.85-3.49 1.214-6.923 1.465-10.5l.231-3.17.241-3.33c.342-4.334.699-8.667 1.063-13l.19-2.325c.592-6.704 1.464-11.518 6.177-16.503 3.427-2.46 7.238-2.305 11.332-2.333"/><path fill="#FEFDFE" d="m520 172 2.131.042c58.2 1.37 120.587 24.388 164.125 63.453 2.253 1.944 4.586 3.78 6.912 5.638 6.064 4.94 11.544 10.353 17.02 15.93l2.884 2.912q3.47 3.506 6.928 7.025c-1.342 3.026-2.786 4.986-5.23 7.207-.64.587-1.278 1.174-1.936 1.78l-2.021 1.825a2673 2673 0 0 0-3.918 3.583c-.642.587-1.283 1.174-1.943 1.78-3.062 2.864-6.013 5.835-8.952 8.825-3.343-1.114-4.06-1.975-6.25-4.625C656.53 248.305 605.748 223.262 556 214l-1.917-.379c-14.058-2.736-27.852-3.14-42.145-3.059l-3.412.01c-16.5.066-32.403.621-48.526 4.428l-2.958.666C420.714 223.959 387.846 240.416 359 264l-1.754 1.424c-6.507 5.31-12.759 10.886-18.933 16.576l-1.822 1.674c-2.503 2.334-4.584 4.466-6.491 7.326-3.65-1.533-5.94-3.722-8.695-6.535l-2.668-2.701-2.762-2.827a3168 3168 0 0 0-5.445-5.535l-2.43-2.484c-1.856-1.97-1.856-1.97-4-2.918v-2h2l.787-1.772c1.3-2.387 2.703-3.961 4.627-5.873l2.059-2.052 2.152-2.115 2.082-2.08c4.605-4.567 9.38-8.877 14.293-13.108q1.608-1.424 3.21-2.852C350.519 222.654 366.986 211.57 385 202l2.133-1.135C427.396 179.835 474.86 170.83 520 172"/><path fill="#FDFDFE" d="M695 723c3.738 1.561 6.132 3.874 8.984 6.719l2.832 2.824 1.458 1.47a794 794 0 0 0 4.456 4.444l2.817 2.824 2.589 2.596C720 746 720 746 720 748h-2l-.68 1.668c-4.016 7.094-11.822 13.095-18 18.348a308 308 0 0 0-5.515 4.843c-49.348 43.999-114.333 68.437-180.367 68.328l-2.257-.002C472.378 841.079 435.594 832.349 400 817l-2.356-1.002c-24.291-10.442-46.804-25.12-66.706-42.463-2.738-2.362-5.538-4.608-8.375-6.847C315.536 760.99 309.304 754.47 303 748c4.675-5.623 9.678-10.797 14.875-15.937l2.375-2.362q2.871-2.854 5.75-5.701c2.928 1.326 5.033 2.777 7.328 5.02l1.898 1.828 2.024 1.965C361.508 755.905 389.726 775.685 421 788l2.52 1.006C463.847 804.928 509.138 811.448 552 803l3.3-.65c39.944-8.065 77.196-24.22 108.7-50.35l2.523-2c5.661-4.515 11.045-9.264 16.352-14.187l1.91-1.765c3.715-3.48 7.04-7.07 10.215-11.048"/><path fill="#FEFDFE" d="M247 325c3.766 1.563 6.136 3.906 8.984 6.79l1.396 1.403q2.19 2.21 4.37 4.432l2.98 3.008q3.642 3.676 7.27 7.367c-1.922 4.098-4.63 7.347-7.5 10.813-5.57 6.853-10.608 13.915-15.338 21.37a303 303 0 0 1-3.361 5.11C229.766 409.925 221.098 439.528 215 468l-.552 2.52c-6.316 29.96-3.452 64.098 4.053 93.514.478 1.882.92 3.771 1.362 5.661C224.01 586.612 230.765 602.691 239 618l1.018 1.93c8.918 16.855 19.96 32.302 31.982 47.07-4.515 5.402-9.275 10.458-14.25 15.438l-2.18 2.216-2.086 2.092-1.883 1.896C250 690 250 690 248 690c-1.396-1.528-2.716-3.127-4-4.75l-2.441-3.062-1.278-1.606c-2.017-2.491-4.128-4.902-6.219-7.332-37.85-45.55-56.844-105.806-56.5-164.437l.01-3.39c.074-16.798.723-32.978 4.428-49.423l.748-3.448C193.323 404.602 215.72 362.564 247 325"/><path fill="#FDFDFE" d="M776 326c4.252 1.563 6.596 4.74 9.313 8.188l1.564 1.98c38.131 49.305 59.28 108.95 59.436 171.207l.01 2.526C846.418 550.631 837.1 590.516 819 627l-1.236 2.538C809.12 647.174 798.786 664.041 786 679a1592 1592 0 0 0-2.703 3.254A2043 2043 0 0 1 776 691c-3.008-1.318-4.74-2.604-6.75-5.187-2.756-3.362-5.763-6.099-9.125-8.844-2.98-2.76-5.53-5.85-8.125-8.969l2.238-2.684C780.423 633.515 797.983 596.102 807 556l.646-2.796c6.53-29.591 6.645-64.763-.646-94.204l-.65-2.833C797.076 415.729 778.67 380.67 752 349c11.912-12.09 11.912-12.09 18.375-17.598 1.976-1.705 3.818-3.52 5.625-5.402"/><path fill="#FEFDFE" d="m551 247 2.42.52c35.067 7.637 66.423 23.023 93.58 46.48l2.758 2.363c7.065 6.214 13.639 12.94 20.242 19.637-1.585 3.863-4.06 6.289-7.008 9.203l-1.471 1.463a1400 1400 0 0 1-4.646 4.584l-3.152 3.125A2895 2895 0 0 1 646 342c-3.282-1.426-5.349-3.156-7.8-5.746l-2.189-2.272-2.323-2.42C608.513 305.94 573.495 288.429 538 283l-3.172-.521c-4.238-.53-8.363-.659-12.629-.682l-2.53-.017q-2.65-.014-5.298-.02c-2.638-.01-5.275-.04-7.912-.072-15.078-.096-29.676 1.412-43.959 6.5l-2.65.92c-28.562 10.141-52.952 25.278-73.988 47.05l-2.221 2.291-1.984 2.073C380 342 380 342 378 342c-1.412-1.434-1.412-1.434-3.066-3.437-4.056-4.77-8.422-9.163-12.872-13.563l-2.36-2.348Q356.852 319.823 354 317l1.973-1.96a699 699 0 0 0 6.96-7.08C371.8 298.9 380.668 290.364 391 283l1.75-1.262c23.373-16.704 49.478-26.94 77.25-33.738l2.741-.689c24.53-5.934 53.64-5.886 78.259-.311"/><path fill="#884FBD" d="M0 0c10.815 10.343 18.85 24.807 19.574 39.988.337 19.406-3.374 35.5-17.133 49.942L.238 92.14l-1.64 1.712c-10.527 10.048-25.683 14.3-39.86 14.664-16.002-.395-29.49-5.828-41.5-16.375l-2.086-1.801c-11.02-10.197-17.43-24.753-18.359-39.656-.584-17.446 3.15-32.487 14.883-45.856A291 291 0 0 1-83.762.141l1.64-1.711C-59.544-23.12-22.356-19.173 0 0" style="fill:#874fbc;fill-opacity:1" transform="translate(553.762 460.86)"/><path fill="#FDFDFE" d="M375 673c3.194 1.401 5.252 3.046 7.652 5.563l2.082 2.15 2.204 2.287c16.3 16.55 35.18 28.062 56.062 38l2.633 1.355C479 738.932 520.452 740.551 556 731l2.347-.615c30.172-8.088 62.329-26.384 82.29-50.729 1.965-2.388 4.144-4.504 6.363-6.656 3.766 1.563 6.136 3.906 8.984 6.79l1.396 1.403q2.19 2.21 4.37 4.432l2.98 3.008q3.642 3.676 7.27 7.367c-3.6 4.987-7.295 9.63-11.687 13.938l-1.57 1.55C653.768 716.34 648.477 720.722 643 725l-2.945 2.39C631.2 734.448 621.778 740.313 612 746l-1.88 1.117c-28.168 16.631-61.636 24.536-94.157 24.22a666 666 0 0 0-7.783-.015c-15.806-.023-31.053-1.204-46.305-5.572l-3.376-.944c-8.704-2.48-17.197-5.195-25.499-8.806l-2.398-1.042c-22.291-9.836-42.125-22.75-59.883-39.427a197 197 0 0 0-7.031-6.218c-3.967-3.427-7.342-7.288-10.688-11.313 1.662-4.126 4.62-7.067 7.625-10.25l1.618-1.733A401 401 0 0 1 375 673M297 370c3.047 1.358 5.107 2.877 7.426 5.266l1.916 1.949 1.97 2.035c4.716 4.844 9.492 9.421 14.688 13.75-1.49 4.68-4.254 7.943-7.375 11.625-29.6 36.158-38.538 79.602-34.436 125.487.901 7.79 2.694 15.35 4.811 22.888l.55 2.11c5.602 21.216 17.545 42.346 30.919 59.62 2.413 3.578 2.413 3.578 2.531 6.27-1.582 2.031-3.083 3.665-4.934 5.422l-1.55 1.53a630 630 0 0 1-4.954 4.798 2236 2236 0 0 0-3.337 3.27A1303 1303 0 0 1 297 644c-3.581-3.521-6.734-7.086-9.625-11.187l-1.293-1.835C254.26 585.233 237.404 529.753 247 474l.39-2.291C254.25 433.003 273.505 400.836 297 370M726 372c4.874 3.434 8.082 7.68 11.563 12.438l1.85 2.527c31.373 43.711 44.908 96.997 37.46 150.46-.81 4.894-1.786 9.735-2.873 14.575l-.633 2.936c-6.905 31.336-22.182 59.351-41.554 84.673A109 109 0 0 0 728 645c-3.713-1.541-5.981-3.808-8.75-6.687-3.718-3.801-7.508-7.398-11.559-10.84-1.639-1.428-3.173-2.918-4.691-4.473 1.464-4.306 3.785-7.602 6.5-11.187 14.043-19.187 24.575-41.804 30.5-64.813l.54-2.064c5.488-22.457 5.095-51.56-.54-73.936l-.504-2.08C732.784 441.986 719.73 417.977 703 396c1.388-3.17 2.976-5.165 5.52-7.496.692-.641 1.385-1.283 2.1-1.943l2.192-1.998q2.136-1.966 4.27-3.934l2.038-1.875c2.353-2.196 4.626-4.456 6.88-6.754"/></svg>