<svg width="1024" height="1024" viewBox="0 0 1024 1024" fill="none" xmlns="http://www.w3.org/2000/svg">
<path d="M436 96.5586C483.029 69.4064 540.971 69.4064 588 96.5586L833.783 238.461C880.812 265.613 909.783 315.792 909.783 370.097V653.903C909.783 708.208 880.812 758.387 833.783 785.539L588 927.441C540.971 954.594 483.029 954.594 436 927.441L190.217 785.539C143.188 758.387 114.217 708.208 114.217 653.903V370.097C114.217 315.792 143.188 265.613 190.217 238.461L436 96.5586Z" fill="#874FBC" stroke="#5A358E" stroke-width="30"/>
<path d="M542.173 332C552.114 332 560.173 340.059 560.173 350V378.595C560.173 386.028 564.798 392.593 571.45 395.91C575.73 398.045 579.879 400.404 583.881 402.971C590.045 406.925 597.915 407.57 604.258 403.908L628.901 389.681C637.51 384.71 648.519 387.66 653.489 396.269L683.489 448.23C688.46 456.84 685.51 467.849 676.9 472.819L654.103 485.981C647.572 489.752 644.202 497.189 644.779 504.708C645.04 508.104 645.173 511.537 645.173 515C645.173 517.05 645.126 519.088 645.034 521.115C644.702 528.419 648.079 535.54 654.41 539.195L676.901 552.181C685.51 557.151 688.46 568.159 683.489 576.769L653.489 628.73C648.519 637.34 637.511 640.29 628.901 635.319L608.27 623.407C601.729 619.631 593.591 620.44 587.365 624.715C582.302 628.192 576.986 631.328 571.45 634.089C564.798 637.407 560.173 643.971 560.173 651.404V675C560.173 684.941 552.114 693 542.173 693H482.173C472.232 693 464.173 684.941 464.173 675V651.404C464.173 643.971 459.548 637.406 452.896 634.089C447.359 631.328 442.042 628.192 436.979 624.715C430.753 620.44 422.615 619.631 416.074 623.407L395.443 635.319C386.834 640.29 375.825 637.34 370.854 628.73L340.854 576.769C335.884 568.16 338.834 557.151 347.442 552.181L369.934 539.195C376.265 535.54 379.643 528.419 379.312 521.115C379.22 519.088 379.173 517.05 379.173 515C379.173 511.537 379.306 508.104 379.566 504.708C380.143 497.189 376.772 489.752 370.241 485.981L347.443 472.819C338.834 467.849 335.884 456.84 340.854 448.23L370.854 396.269C375.825 387.659 386.834 384.71 395.443 389.681L420.086 403.908C426.429 407.57 434.298 406.925 440.463 402.971C444.466 400.403 448.615 398.045 452.896 395.91C459.548 392.593 464.173 386.028 464.173 378.595V350C464.173 340.059 472.232 332 482.173 332H542.173ZM512.173 452C477.379 452 449.173 480.206 449.173 515C449.173 549.794 477.379 578 512.173 578C546.967 578 575.173 549.794 575.173 515C575.173 480.206 546.967 452 512.173 452Z" fill="white"/>
<path d="M656.358 710.656C658.701 712.999 658.702 716.797 656.359 719.14L656.25 719.249L655.314 720.18C575.888 798.607 448.112 798.607 368.685 720.18L367.75 719.249L367.641 719.14C365.298 716.797 365.298 712.998 367.641 710.655L386.026 692.27C388.369 689.927 392.168 689.927 394.511 692.27L394.62 692.379C459.447 757.206 564.553 757.206 629.38 692.379L629.488 692.271C631.831 689.928 635.63 689.927 637.974 692.271L656.358 710.656ZM331.729 386.026C334.072 388.369 334.073 392.167 331.73 394.511L331.62 394.62C266.793 459.447 266.793 564.552 331.62 629.379L331.729 629.488C334.072 631.831 334.072 635.63 331.729 637.973L313.344 656.358C311.001 658.701 307.202 658.701 304.859 656.358L304.75 656.249C225.394 576.894 225.085 448.425 303.82 368.686L304.75 367.75L304.859 367.641C307.202 365.298 311.001 365.298 313.345 367.641L331.729 386.026ZM719.25 367.75L720.181 368.686C798.607 448.113 798.608 575.887 720.181 655.314L719.25 656.249L719.14 656.359C716.797 658.702 712.998 658.702 710.655 656.359L692.27 637.974C689.927 635.631 689.927 631.831 692.271 629.488L692.38 629.379C757.207 564.552 757.207 459.447 692.38 394.62L692.27 394.511C689.927 392.167 689.927 388.368 692.27 386.025L710.655 367.64C712.998 365.297 716.797 365.297 719.14 367.64L719.25 367.75ZM368.685 303.82C448.425 225.084 576.894 225.394 656.25 304.749L656.359 304.858C658.702 307.201 658.702 311 656.359 313.344L637.974 331.728C635.631 334.072 631.832 334.072 629.489 331.728L629.38 331.619C564.553 266.793 459.447 266.793 394.62 331.619L394.51 331.729C392.167 334.072 388.368 334.072 386.025 331.729L367.641 313.344C365.297 311.001 365.297 307.201 367.641 304.858L367.75 304.749L368.685 303.82Z" fill="white"/>
<path d="M346.249 741.008C438.022 832.781 586.816 832.781 678.589 741.008V741.008C680.832 738.765 684.469 738.764 686.712 741.008L705.459 759.754C707.702 761.997 707.702 765.634 705.459 767.878V767.878L704.207 769.123C597.915 874.077 426.924 874.076 320.632 769.122L319.379 767.878L319.141 767.64C316.798 765.297 316.798 761.498 319.141 759.155L337.526 740.77C339.869 738.427 343.668 738.427 346.011 740.77L346.249 741.008ZM767.879 319.378L769.124 320.63C874.078 426.922 874.078 597.916 769.124 704.207L767.879 705.459V705.459C765.635 707.702 761.998 707.702 759.755 705.458L741.008 686.711C738.765 684.468 738.765 680.832 741.009 678.589V678.589C832.782 586.816 832.782 438.022 741.009 346.248L740.771 346.011C738.428 343.667 738.428 339.868 740.771 337.525L759.156 319.14C761.499 316.797 765.298 316.797 767.641 319.14L767.879 319.378ZM283.83 338.125C286.073 340.368 286.073 344.005 283.83 346.248V346.248C192.057 438.022 192.057 586.816 283.83 678.589V678.589C285.841 680.6 285.841 683.861 283.83 685.872L264.243 705.459C262.232 707.47 258.971 707.47 256.96 705.459V705.459C150.763 599.263 150.348 427.341 255.715 320.631L256.96 319.378V319.378C259.203 317.135 262.84 317.135 265.083 319.378L283.83 338.125ZM320.632 255.715C427.342 150.348 599.262 150.763 705.459 256.959V256.959C707.471 258.971 707.471 262.233 705.459 264.244L685.874 283.829C683.862 285.841 680.601 285.841 678.589 283.829V283.829C586.816 192.056 438.022 192.056 346.249 283.829V283.829C344.006 286.073 340.369 286.073 338.126 283.829L319.379 265.082C317.136 262.839 317.136 259.202 319.379 256.959V256.959L320.632 255.715Z" fill="white"/>
</svg>
